 <svg version="1.0" xmlns="http://www.w3.org/2000/svg"  
 width="50.000000pt" 
 height="50.000000pt" 
 viewBox="0 0 300.000000 300.000000"  preserveAspectRatio="xMidYMid meet">  
 <g transform="translate(0.000000,300.000000) scale(0.100000,-0.100000)" fill="#33F4FF" stroke="none"> 
 <path d="M2212 2399 c-111 -18 -199 -88 -250 -198 -23 -48 -27 -73 -30 -174 -6 -162 18 -242 95 -328 57 -63 123 -92 220 -97 99 -5 163 9 223 49 91 62 147 170 157 305 22 289 -161 484 -415 443z m194 -44 c27 -14 53 -25 57 -25 20 0 73 -70 109 -143 73 -148 35 -389 -76 -490 -68 -61 -101 -72 -221 -72 -83 0 -117 4 -140 17 -39 21 -110 78 -99 78 5 0 1 5 -8 11 -10 5 -18 17 -18 24 0 8 -4 15 -9 15 -5 0 -11 8 -15 18 -32 93 -36 116 -36 223 0 63 4 119 8 125 5 5 14 27 20 49 16 56 86 133 147 160 72 33 72 33 156 34 62 1 85 -4 125 -24z"></path> <path d="M2230 2155 c-21 -22 -24 -38 -28 -115 -8 -161 16 -225 81 -218 52 5 72 52 72 173 0 63 -5 112 -14 133 -24 57 -72 68 -111 27z m90 -30 c10 -20 15 -62 15 -125 0 -112 -15 -153 -57 -158 -42 -5 -59 39 -59 152 -1 119 17 169 58 164 19 -2 32 -12 43 -33z"></path> <path d="M1065 2174 c-11 -2 -51 -12 -89 -20 -256 -59 -463 -237 -553 -475 -43 -113 -57 -210 -50 -334 17 -288 166 -520 417 -649 144 -74 246 -97 440 -97 269 0 468 81 629 257 33 37 61 70 61 75 0 4 -8 14 -18 21 -22 15 -191 164 -317 280 l-31 28 -75 -74 c-58 -57 -86 -77 -129 -91 -112 -37 -237 -14 -310 57 -58 55 -83 116 -88 214 -8 148 46 257 153 309 78 39 192 39 270 1 48 -24 120 -88 159 -141 14 -20 15 -20 43 6 15 14 46 42 68 61 125 110 270 243 273 249 2 4 -36 48 -85 97 -78 78 -101 96 -193 140 -152 73 -197 84 -390 87 -91 2 -174 2 -185 -1z m326 -25 c30 -6 68 -13 84 -16 44 -7 196 -74 202 -89 2 -7 15 -15 27 -18 25 -6 146 -115 171 -153 14 -21 14 -25 1 -38 -8 -8 -17 -15 -21 -15 -4 0 -24 -17 -45 -37 -21 -21 -66 -63 -100 -93 -34 -30 -71 -66 -83 -78 -12 -13 -35 -31 -51 -39 -29 -15 -30 -15 -76 34 -28 30 -75 64 -119 86 -62 32 -82 37 -140 37 -55 0 -79 -6 -130 -30 -63 -31 -131 -87 -131 -109 0 -6 -5 -11 -10 -11 -6 0 -9 -3 -8 -7 1 -5 -5 -21 -12 -38 -8 -17 -16 -77 -18 -136 -3 -101 -2 -110 25 -165 15 -31 42 -71 59 -88 34 -34 79 -72 79 -67 0 2 16 -3 35 -11 74 -31 203 -19 263 24 15 11 34 21 42 22 8 1 35 25 61 54 26 29 52 52 59 52 12 0 119 -93 258 -225 32 -30 63 -55 68 -55 23 0 4 -30 -54 -85 -125 -120 -225 -178 -377 -216 -75 -19 -387 -19 -455 0 -125 34 -242 87 -282 126 -8 8 -18 15 -22 15 -14 0 -161 152 -161 166 0 7 -4 14 -8 16 -15 6 -70 113 -90 178 -35 110 -45 184 -39 293 3 56 13 129 21 162 17 64 94 225 108 225 4 0 8 7 8 15 0 8 5 15 10 15 6 0 10 7 10 16 0 8 4 12 10 9 5 -3 10 -1 10 6 0 15 76 89 84 82 3 -4 6 1 6 10 0 11 8 17 22 17 12 0 18 3 15 7 -4 3 10 17 30 30 153 94 291 132 479 133 72 0 156 -5 185 -11z"></path> <path d="M1830 1504 c0 -9 5 -14 12 -12 18 6 21 28 4 28 -9 0 -16 -7 -16 -16z"></path> <path d="M1630 1455 c-10 -12 -16 -13 -26 -4 -16 13 -17 11 -33 -75 -11 -57 -8 -81 9 -71 4 3 11 22 15 42 9 52 31 90 55 98 11 3 20 11 20 16 0 14 -26 11 -40 -6z"></path> <path d="M2027 1458 c-18 -14 -47 -78 -47 -103 0 -21 36 -55 60 -55 24 0 88 55 77 66 -4 4 -20 -5 -36 -20 -36 -34 -65 -31 -69 7 -3 21 1 27 16 27 41 0 71 70 36 84 -20 8 -17 8 -37 -6z m33 -16 c0 -13 -31 -52 -41 -52 -5 0 -3 14 6 30 14 28 35 41 35 22z"></path> <path d="M1681 1423 c-17 -58 -14 -101 7 -112 10 -5 23 -6 29 -3 14 9 166 7 181 -2 15 -9 61 14 67 35 8 24 -10 56 -35 64 -29 9 -24 25 10 32 17 3 30 9 30 14 0 16 -47 9 -71 -10 -20 -16 -21 -21 -10 -34 7 -9 22 -19 32 -22 28 -9 21 -49 -8 -53 -16 -2 -23 2 -23 12 0 22 -13 20 -35 -4 -27 -30 -34 -12 -22 52 10 57 4 86 -13 59 -4 -8 -11 -33 -15 -57 -3 -24 -15 -50 -27 -60 l-21 -19 6 45 c4 25 10 55 13 68 5 16 2 22 -9 22 -9 0 -17 -14 -22 -37 -9 -52 -34 -98 -46 -86 -6 6 -6 26 0 54 6 24 11 52 11 62 0 31 -19 18 -29 -20z"></path> 
 </g> </svg> 